<?xml version="1.0" encoding="utf-8"?>
<!-- Generator: Adobe Illustrator 18.1.0, SVG Export Plug-In . SVG Version: 6.00 Build 0)  -->
<svg version="1.1" id="visible" xmlns="http://www.w3.org/2000/svg" xmlns:xlink="http://www.w3.org/1999/xlink" x="0px" y="0px"
	 viewBox="0 0 747.2 526.2" enable-background="new 0 0 747.2 526.2" xml:space="preserve">
<g>
	<path d="M371,131.5c-73.7,0-131.5,57.9-131.5,131.5S297.3,394.6,371,394.6s131.5-57.9,131.5-131.5S444.6,131.5,371,131.5z
		 M371,368.3c-57.9,0-105.2-47.4-105.2-105.2S313.1,157.9,371,157.9s105.2,47.4,105.2,105.2S428.8,368.3,371,368.3z"/>
	<path d="M557.8,76.3C505.1,26.3,439.4,0,371,0S236.8,26.3,184.2,76.3L0,263.1l186.8,186.8c52.6,52.6,118.4,76.3,186.8,76.3
		s134.2-26.3,186.8-76.3l186.8-186.8L557.8,76.3z M539.3,431.5c-44.7,44.7-105.2,68.4-168.4,68.4s-123.7-23.7-168.4-68.4L36.8,263.1
		L205.2,94.7C247.3,50,307.8,26.3,371,26.3S494.6,50,539.3,94.7l168.4,168.4L539.3,431.5z"/>
</g>
</svg>
